PathFileType	4	(X/Y/Z)	C:/Users/beibeiliu/ov580/test_trc/User3\sequence.17_training_dense_right.trc
DataRate	CameraRate	NumFrames	NumMarkers	Units	OrigDataRate	OrigDataStartFrame	OrigNumFrames
120	120	18	19	mm	120	186	247
Frame#	Time	ThumbCMC			ThumbMCP			ThumbIP			ThumbTip			IndexMCP			IndexPIP			IndexTip			MiddleMCP			MiddlePIP			MiddleTip			RingMCP			RingPIP			RingTip			PinkyMCP			PinkyPIP			PinkyTip			BackHand1			BackHand2			BackHand3	
		X0	Y0	Z0	X1	Y1	Z1	X2	Y2	Z2	X3	Y3	Z3	X4	Y4	Z4	X5	Y5	Z5	X6	Y6	Z6	X7	Y7	Z7	X8	Y8	Z8	X9	Y9	Z9	X10	Y10	Z10	X11	Y11	Z11	X12	Y12	Z12	X13	Y13	Z13	X14	Y14	Z14	X15	Y15	Z15	X16	Y16	Z16	X17	Y17	Z17	X18	Y18	Z18	
185	1.54167	116.484	-45.9416	43.1016	99.1403	-75.3071	32.5111	99.8158	-102.744	14.9853	128.157	-112.792	5.09747	105.036	-62.859	-30.3193	91.2595	-78.014	-50.2923	81.7307	-91.2638	-64.821	124.377	-85.4475	-29.1109	117.037	-116.305	-21.8363	123.641	-116.096	22.1616	144.505	-90.3049	-18.5008	139.018	-117.845	-3.64451	141.087	-105.981	27.5313	173.828	-84.1795	-16.4889	175.573	-103.276	-32.9354	177.253	-117.19	-45.3989	165.142	-43.1547	2.31764	172.84	-27.1191	25.8816	138.636	-26.6895	18.2523	
186	1.55	115.759	-38.9268	42.6396	95.6547	-70.1035	31.3935	94.1911	-96.8426	13.7634	113.463	-110.595	6.833	105.55	-52.2765	-32.1371	88.6003	-61.1927	-49.3726	74.4697	-76.4708	-69.8141	121.164	-79.7052	-34.3712	110.178	-106.796	-25.4432	117.036	-103.538	14.9703	139.615	-86.93	-23.4143	133.568	-112.675	-8.06788	130.891	-99.9113	24.2488	169.16	-81.0455	-22.0977	165.856	-95.4587	-34.1556	166.697	-110.401	-54.2795	159.872	-38.0417	-0.617804	175.881	-24.9533	24.2538	138.444	-21.4308	15.0207	
187	1.55833	112.933	-32.187	43.4082	93.6641	-63.593	27.46	92.3536	-88.2988	10.3279	109.646	-103.876	-2.1321	103.437	-41.1422	-36.0897	86.4462	-50.0425	-57.2981	76.001	-61.5004	-77.6801	120.673	-67.857	-34.7964	102.078	-96.8923	-24.4009	112.344	-87.779	13.7422	139.031	-78.1849	-27.6316	124.502	-103.873	-14.274	126.068	-97.0534	17.9214	165.365	-73.6979	-23.5281	161.765	-86.9194	-39.4919	163.451	-104.788	-59.2001	162.027	-32.6506	-1.15824	172.369	-23.2729	24.873	139.287	-14.1887	17.2287	
188	1.56667	112.111	-29.8065	40.4049	93.0773	-56.5312	23.4682	87.3739	-79.4023	3.4632	101.62	-96.0703	-9.95027	104.431	-28.004	-35.4043	88.7732	-33.6206	-60.7642	77.3806	-41.2141	-82.274	114.689	-55.3717	-39.2206	102.846	-86.2296	-28.3882	114.053	-76.1251	8.21433	132.658	-69.4798	-34.2576	118.277	-94.4964	-21.8235	120.952	-88.507	10.0635	159.602	-64.2479	-31.403	161.536	-78.259	-44.8994	158.081	-90.1628	-66.2924	161.234	-25.841	-1.50664	172.094	-18.3604	28.6003	138.462	-8.57048	18.6521	
189	1.575	109.289	-26.5526	38.3693	92.4773	-51.7536	17.3417	86.0727	-72.7769	-8.79872	103.231	-86.3158	-23.6211	104.123	-16.6214	-39.9135	93.0596	-17.0375	-58.5061	79.4418	-20.4486	-85.379	115.98	-49.3698	-45.1309	101.916	-74.9981	-36.334	115.312	-68.6759	2.84329	135.2	-54.8556	-37.3961	123.029	-85.1272	-32.9124	124.199	-84.932	0.21529	164.609	-56.4828	-33.39	158.114	-64.0121	-52.6523	158.003	-70.379	-70.6998	164.517	-22.9722	-4.50439	174.221	-14.9021	27.9147	136.709	-4.33328	17.3773	
190	1.58333	114.075	-28.1344	35.7054	96.6914	-46.9233	11.5546	88.1023	-63.957	-16.2352	101.721	-75.4998	-35.7612	107.042	-7.11105	-36.5157	91.0044	-2.33557	-62.1635	83.5801	-3.29518	-81.7314	116.802	-33.9072	-45.4535	106.833	-67.1667	-43.3347	118.605	-61.4517	-3.65447	136.678	-42.4851	-42.1399	123.481	-72.5755	-42.7942	124.442	-76.8759	-6.64488	166.375	-44.2852	-37.4153	163.494	-50.0922	-58.1856	162.079	-53.8527	-78.7024	161.309	-15.1727	2.17526	175.019	-15.3238	28.6137	141.581	-3.15079	21.362	
191	1.59167	112.985	-29.445	34.7635	95.0549	-45.2201	7.2365	89.3827	-56.2076	-21.9175	101.869	-66.0902	-42.0429	106.606	1.35521	-35.3734	91.822	7.66506	-59.1311	85.8057	9.92068	-81.0803	121.78	-27.5253	-52.2261	109.721	-56.9874	-49.7764	118.794	-59.6563	-14.0229	142.49	-34.2865	-47.5587	132.073	-63.8571	-50.9403	129.391	-71.7776	-19.0937	167.743	-32.9257	-36.7568	166.928	-35.8685	-62.7319	167.658	-37.2998	-85.0554	167.658	-9.60998	2.08484	173.07	-11.3039	27.4261	141.034	-1.67482	25.2071	
192	1.6	114.584	-32.0491	33.7802	101.23	-44.1002	6.16567	94.2246	-51.8782	-28.6225	105.586	-59.244	-50.8164	104.947	7.95208	-34.3782	93.286	14.3338	-55.3042	83.3276	20.3186	-78.2625	123.443	-17.8205	-51.544	116.133	-50.0554	-55.2843	126.224	-54.766	-18.559	143.768	-23.428	-46.2692	138.886	-53.7715	-57.4695	133.845	-67.6437	-26.499	172.04	-24.3117	-37.783	167.754	-24.8404	-60.9988	171.114	-22.9231	-81.3684	163.35	-3.50269	1.54791	174.138	-9.06702	29.2084	137.581	-2.63623	25.3578	
193	1.60833	113.717	-33.8228	32.6097	100.066	-46.4675	2.87057	96.4771	-51.9554	-29.402	110.19	-55.0118	-53.5132	107.025	9.4051	-34.5733	96.8171	16.2865	-57.6792	86.0152	22.4515	-75.4031	126.4	-12.8094	-50.4989	116.503	-42.2548	-59.3762	129.62	-51.6704	-20.2624	148.313	-21.9865	-51.6169	138.082	-48.2697	-58.2569	139.696	-63.8951	-27.0958	171.241	-17.7217	-41.7945	171.244	-18.6222	-59.5713	174.664	-13.5942	-78.6618	168.952	-5.97573	4.77868	177.489	-11.8123	32.9824	136.747	-1.26751	24.4644	
194	1.61667	118.884	-34.893	33.1795	104.49	-44.5678	-0.900523	103.142	-49.9222	-32.0208	114.481	-55.5323	-50.4103	109.169	8.40622	-33.1128	96.7013	16.7638	-53.9573	87.3602	22.9251	-77.731	128.291	-10.9114	-50.7386	122.09	-42.6771	-59.7034	130.17	-51.4191	-23.6872	147.556	-17.0508	-46.4412	142.917	-46.2957	-59.4012	141.724	-61.5425	-28.1631	171.634	-17.0623	-38.6192	174.032	-14.8426	-60.6584	175.349	-12.3436	-77.8908	169.788	-3.53384	4.89718	178.411	-11.1912	34.1241	142.236	-2.20441	23.2329	
195	1.625	116.014	-35.199	30.4089	103.586	-47.6529	-0.396787	104.935	-53.9544	-29.1371	119.236	-60.2556	-54.0101	110.919	6.58494	-31.7175	99.1134	13.7792	-59.036	86.3515	18.3702	-75.7714	129.845	-12.4778	-53.5028	124.948	-42.492	-60.2882	131.907	-51.6842	-22.3231	151.881	-20.6039	-49.2035	144.367	-47.9407	-60.3206	139.228	-62.3627	-31.3002	177.973	-18.2342	-40.8976	178.233	-15.9099	-62.0827	180.968	-10.9408	-81.5917	168.757	-4.47755	1.6506	174.268	-10.3464	30.6215	141.278	-2.94422	23.9499	
196	1.63333	116.261	-34.0064	29.1553	107.82	-49.8063	0.534066	106.322	-59.0383	-27.7059	124.873	-62.9417	-52.2045	112.375	2.73743	-32.7514	98.0988	8.45086	-57.7989	91.1228	13.2135	-80.5535	132.379	-14.7177	-49.6748	124.923	-45.9238	-61.1488	132.46	-54.3736	-23.8966	154.434	-24.6372	-49.0631	144.337	-51.4248	-59.3976	140.492	-65.1001	-25.3747	174.867	-20.8527	-40.498	180.132	-20.5854	-61.2272	184.391	-16.9553	-78.5047	172.086	-8.50612	3.59143	180.655	-10.5425	30.1843	141.163	-3.70365	24.6521	
197	1.64167	119.216	-36.0495	32.7944	104.5	-51.6986	1.36527	109.445	-61.3565	-28.4626	122.95	-68.9243	-44.9352	113.641	-1.24684	-36.9516	100.625	2.76778	-57.6063	87.2515	8.09265	-83.448	131.238	-19.5161	-52.1608	123.508	-48.6552	-62.9342	131.446	-58.4943	-22.3954	151.661	-30.3741	-52.1754	143.007	-59.8659	-56.6459	139.612	-69.8871	-27.9146	177.447	-26.7489	-40.4766	179.571	-28.2767	-57.4926	183.362	-23.9155	-78.2663	171.523	-10.4013	-0.0340022	178.198	-14.7657	29.0174	143.573	-4.25257	20.2655	
198	1.65	117.252	-35.2533	29.858	105.134	-52.5214	2.46813	104.009	-65.5662	-25.0986	125.398	-73.9631	-42.5254	111.221	-4.13022	-40.1686	101.637	-2.37209	-60.3182	89.4109	-0.433124	-85.0381	131.896	-25.46	-52.2588	122.37	-59.4025	-58.2382	125.786	-63.9739	-22.2286	151.697	-38.3001	-52.1254	141.68	-67.1893	-53.9902	137.201	-73.3961	-20.3088	176.19	-34.8199	-37.7323	176.957	-34.2035	-59.9954	180.921	-33.6784	-76.8872	170.782	-13.1257	0.797353	177.928	-16.3616	31.8946	144.989	-6.07112	23.4946	
199	1.65833	118.082	-35.2911	32.6894	103.089	-54.3627	4.87137	102.509	-71.0302	-23.3821	117.78	-83.5715	-39.7806	109.411	-10.2924	-39.9239	98.2225	-10.8481	-65.6627	90.0155	-10.6116	-87.012	128.328	-35.259	-53.4762	119.419	-64.6879	-56.2052	119.141	-69.5327	-17.3076	148.699	-44.7555	-48.2735	135.138	-70.5891	-52.4573	130.942	-78.3911	-17.87	172.506	-42.1371	-36.9918	175.331	-44.2291	-56.9823	179.802	-45.5253	-77.6147	170.961	-19.048	-0.769674	179.34	-17.4947	28.6049	140.453	-6.82842	19.2021	
200	1.66667	111.829	-33.4343	35.1116	99.573	-56.7946	8.52744	97.0442	-75.1698	-13.73	113.909	-89.6119	-32.8063	107.502	-16.649	-37.7944	96.8087	-18.9338	-61.4999	83.3696	-20.204	-86.1468	125.704	-44.2708	-50.631	108.222	-72.4378	-47.2589	114.366	-73.9345	-10.6753	142.518	-53.1101	-44.8585	127.888	-80.096	-44.1985	128.294	-82.6874	-9.11298	168.639	-50.4745	-34.4138	170.526	-55.9867	-54.7995	173.282	-56.514	-77.8954	166.84	-23.7286	0.684197	175.316	-22.3158	25.9486	142.652	-10.4495	20.3803	
201	1.675	107.852	-33.3957	34.2063	95.999	-58.1612	15.6407	92.9085	-79.359	-9.93821	105.268	-95.0173	-23.4578	102.436	-23.6228	-40.4449	87.5442	-25.1552	-60.0455	78.8634	-30.9198	-84.0673	121.711	-50.8194	-44.3383	105.637	-79.8043	-43.5205	109.127	-77.2566	-3.3195	137.067	-64.5465	-42.3418	124.668	-90.201	-35.5853	119.186	-86.0821	-0.71066	164.185	-59.7708	-34.7627	164.772	-67.5751	-53.5259	165.859	-72.5784	-75.6908	165.863	-29.3037	1.82485	172.598	-24.7584	28.17	139.377	-11.3474	16.3296	
202	1.68333	110.203	-32.6204	40.3977	90.174	-56.8047	24.3754	81.9139	-81.3788	3.43518	97.7162	-98.7314	-12.3059	100.828	-30.6332	-36.3041	82.7376	-35.337	-58.0409	68.9498	-40.1854	-77.4088	111.613	-56.9636	-39.813	95.3276	-86.5663	-30.8318	106.155	-79.5498	6.87455	127.508	-70.8927	-34.9871	112.218	-95.3148	-24.4385	114.248	-90.3886	7.92858	159.099	-70.0294	-25.5051	153.703	-78.3059	-48.3619	155.444	-89.8272	-69.2779	157.732	-33.5008	3.00045	170.871	-27.4316	27.117	135.741	-10.5753	20.3999	
